<svg width="720" height="160" viewBox="0 0 720 160" fill="none" xmlns="http://www.w3.org/2000/svg">
<path d="M215.108 72.0898C215.108 74.6175 214.528 76.938 213.367 79.0514C212.207 81.1233 210.425 82.8015 208.022 84.0861C205.618 85.3707 202.635 86.013 199.071 86.013H192.483V101.677H181.854V58.0423H199.071C202.552 58.0423 205.494 58.6432 207.898 59.8449C210.301 61.0466 212.103 62.7041 213.305 64.8174C214.507 66.9308 215.108 69.3549 215.108 72.0898ZM198.263 77.5596C200.294 77.5596 201.806 77.0831 202.801 76.13C203.795 75.1769 204.292 73.8302 204.292 72.0898C204.292 70.3494 203.795 69.0027 202.801 68.0496C201.806 67.0965 200.294 66.62 198.263 66.62H192.483V77.5596H198.263ZM244.136 101.677L235.062 85.2049H232.513V101.677H221.884V58.0423H239.723C243.163 58.0423 246.084 58.6432 248.487 59.8449C250.932 61.0466 252.756 62.7041 253.957 64.8174C255.159 66.8893 255.76 69.2098 255.76 71.779C255.76 74.6797 254.931 77.2695 253.274 79.5486C251.657 81.8277 249.254 83.4438 246.063 84.3969L256.133 101.677H244.136ZM232.513 77.6839H239.102C241.049 77.6839 242.5 77.2074 243.453 76.2543C244.447 75.3012 244.945 73.9545 244.945 72.2141C244.945 70.5566 244.447 69.2513 243.453 68.2982C242.5 67.3451 241.049 66.8686 239.102 66.8686H232.513V77.6839ZM284.311 102.112C280.209 102.112 276.438 101.159 272.999 99.2524C269.601 97.3462 266.887 94.6942 264.856 91.2963C262.867 87.8569 261.873 84.0032 261.873 79.7351C261.873 75.467 262.867 71.634 264.856 68.2361C266.887 64.8381 269.601 62.1861 272.999 60.28C276.438 58.3738 280.209 57.4207 284.311 57.4207C288.414 57.4207 292.164 58.3738 295.562 60.28C299.001 62.1861 301.695 64.8381 303.642 68.2361C305.631 71.634 306.626 75.467 306.626 79.7351C306.626 84.0032 305.631 87.8569 303.642 91.2963C301.653 94.6942 298.96 97.3462 295.562 99.2524C292.164 101.159 288.414 102.112 284.311 102.112ZM284.311 92.4151C287.792 92.4151 290.568 91.2549 292.64 88.9343C294.754 86.6138 295.81 83.5474 295.81 79.7351C295.81 75.8814 294.754 72.815 292.64 70.5359C290.568 68.2153 287.792 67.0551 284.311 67.0551C280.789 67.0551 277.971 68.1946 275.858 70.4737C273.786 72.7528 272.75 75.8399 272.75 79.7351C272.75 83.5888 273.786 86.676 275.858 88.9965C277.971 91.2756 280.789 92.4151 284.311 92.4151ZM342.188 58.0423V66.5578H324.411V75.757H337.712V84.0239H324.411V101.677H313.782V58.0423H342.188ZM359.646 58.0423V101.677H349.017V58.0423H359.646ZM399.981 58.0423V66.5578H388.42V101.677H377.791V66.5578H366.23V58.0423H399.981ZM447.39 79.3C449.918 79.8387 451.949 81.1026 453.482 83.0916C455.015 85.0392 455.782 87.2768 455.782 89.8045C455.782 93.4511 454.497 96.3517 451.928 98.5065C449.4 100.62 445.857 101.677 441.299 101.677H420.974V58.0423H440.615C445.049 58.0423 448.509 59.0575 450.995 61.088C453.523 63.1185 454.787 65.8741 454.787 69.3549C454.787 71.924 454.103 74.0581 452.736 75.757C451.41 77.456 449.628 78.637 447.39 79.3ZM431.602 75.6949H438.564C440.304 75.6949 441.63 75.322 442.542 74.5761C443.495 73.7887 443.972 72.6492 443.972 71.1574C443.972 69.6657 443.495 68.5261 442.542 67.7388C441.63 66.9515 440.304 66.5578 438.564 66.5578H431.602V75.6949ZM439.434 93.0988C441.216 93.0988 442.584 92.7052 443.537 91.9179C444.531 91.0891 445.028 89.9081 445.028 88.3749C445.028 86.8417 444.51 85.64 443.474 84.7698C442.48 83.8996 441.092 83.4645 439.31 83.4645H431.602V93.0988H439.434ZM473.632 58.0423V84.1482C473.632 86.7588 474.274 88.7686 475.559 90.1775C476.843 91.5864 478.729 92.2908 481.215 92.2908C483.701 92.2908 485.607 91.5864 486.933 90.1775C488.259 88.7686 488.922 86.7588 488.922 84.1482V58.0423H499.551V84.0861C499.551 87.9813 498.722 91.2756 497.065 93.969C495.407 96.6625 493.17 98.693 490.352 100.06C487.576 101.428 484.468 102.112 481.028 102.112C477.589 102.112 474.502 101.449 471.767 100.123C469.074 98.7551 466.94 96.7247 465.365 94.0312C463.79 91.2963 463.003 87.9813 463.003 84.0861V58.0423H473.632ZM524.605 58.0423C529.205 58.0423 533.224 58.9539 536.664 60.7772C540.103 62.6005 542.755 65.1696 544.62 68.4847C546.526 71.7583 547.479 75.5499 547.479 79.8594C547.479 84.1275 546.526 87.9191 544.62 91.2341C542.755 94.5492 540.082 97.1183 536.602 98.9416C533.162 100.765 529.163 101.677 524.605 101.677H508.258V58.0423H524.605ZM523.922 92.4773C527.941 92.4773 531.07 91.3792 533.307 89.183C535.545 86.9867 536.664 83.8789 536.664 79.8594C536.664 75.8399 535.545 72.7114 533.307 70.4737C531.07 68.2361 527.941 67.1172 523.922 67.1172H518.887V92.4773H523.922ZM571.009 58.0423C575.609 58.0423 579.629 58.9539 583.068 60.7772C586.507 62.6005 589.159 65.1696 591.024 68.4847C592.93 71.7583 593.883 75.5499 593.883 79.8594C593.883 84.1275 592.93 87.9191 591.024 91.2341C589.159 94.5492 586.486 97.1183 583.006 98.9416C579.566 100.765 575.568 101.677 571.009 101.677H554.662V58.0423H571.009ZM570.326 92.4773C574.345 92.4773 577.474 91.3792 579.711 89.183C581.949 86.9867 583.068 83.8789 583.068 79.8594C583.068 75.8399 581.949 72.7114 579.711 70.4737C577.474 68.2361 574.345 67.1172 570.326 67.1172H565.291V92.4773H570.326ZM638.485 58.0423L623.381 87.2561V101.677H612.752V87.2561L597.648 58.0423H609.706L618.159 76.3165L626.551 58.0423H638.485ZM685.588 93.969H669.303L666.692 101.677H655.566L671.354 58.0423H683.661L699.449 101.677H688.199L685.588 93.969ZM682.853 85.7643L677.445 69.79L672.1 85.7643H682.853ZM716.126 58.0423V101.677H705.497V58.0423H716.126Z" fill="black"/>
<path d="M76 88.6758V160L142 121.324V50L76 88.6758Z" fill="black"/>
<path d="M66 88.6758V160L0 121.324V50L66 88.6758Z" fill="#D9D9D9"/>
<path d="M66 88.6758V160L0 121.324V50L66 88.6758Z" fill="black"/>
<path d="M71 80L0 40L71 0L142 40L71 80Z" fill="black"/>
<path d="M142 30L124.721 20.0312L41 68.3682V97.5L21 84.5V57L104.732 8.49902L90 0H142V30Z" fill="white"/>
<circle cx="94" cy="114" r="6" fill="white"/>
<circle opacity="0.6" cx="109" cy="105" r="6" fill="white"/>
<circle opacity="0.3" cx="124" cy="96" r="6" fill="white"/>
</svg>
