<svg width="720" height="160" viewBox="0 0 720 160" fill="none" xmlns="http://www.w3.org/2000/svg">
<path d="M215.108 72.0897C215.108 74.6174 214.528 76.938 213.367 79.0513C212.207 81.1232 210.425 82.8014 208.022 84.086C205.618 85.3706 202.635 86.0129 199.071 86.0129H192.483V101.676H181.854V58.0422H199.071C202.552 58.0422 205.494 58.6431 207.898 59.8448C210.301 61.0465 212.103 62.704 213.305 64.8174C214.507 66.9307 215.108 69.3548 215.108 72.0897ZM198.263 77.5595C200.294 77.5595 201.806 77.083 202.801 76.1299C203.795 75.1769 204.292 73.8301 204.292 72.0897C204.292 70.3493 203.795 69.0026 202.801 68.0495C201.806 67.0964 200.294 66.6199 198.263 66.6199H192.483V77.5595H198.263ZM244.136 101.676L235.062 85.2049H232.513V101.676H221.884V58.0422H239.723C243.163 58.0422 246.084 58.6431 248.487 59.8448C250.932 61.0465 252.756 62.704 253.957 64.8174C255.159 66.8893 255.76 69.2098 255.76 71.7789C255.76 74.6796 254.931 77.2695 253.274 79.5486C251.657 81.8277 249.254 83.4437 246.063 84.3968L256.133 101.676H244.136ZM232.513 77.6839H239.102C241.049 77.6839 242.5 77.2073 243.453 76.2542C244.447 75.3012 244.945 73.9544 244.945 72.214C244.945 70.5565 244.447 69.2512 243.453 68.2982C242.5 67.3451 241.049 66.8685 239.102 66.8685H232.513V77.6839ZM284.311 102.112C280.209 102.112 276.438 101.158 272.999 99.2523C269.601 97.3462 266.887 94.6942 264.856 91.2962C262.867 87.8569 261.873 84.0031 261.873 79.735C261.873 75.4669 262.867 71.6339 264.856 68.236C266.887 64.8381 269.601 62.186 272.999 60.2799C276.438 58.3738 280.209 57.4207 284.311 57.4207C288.414 57.4207 292.164 58.3738 295.562 60.2799C299.001 62.186 301.695 64.8381 303.642 68.236C305.631 71.6339 306.626 75.4669 306.626 79.735C306.626 84.0031 305.631 87.8569 303.642 91.2962C301.653 94.6942 298.96 97.3462 295.562 99.2523C292.164 101.158 288.414 102.112 284.311 102.112ZM284.311 92.4151C287.792 92.4151 290.568 91.2548 292.64 88.9343C294.754 86.6137 295.81 83.5473 295.81 79.735C295.81 75.8813 294.754 72.8149 292.64 70.5358C290.568 68.2153 287.792 67.055 284.311 67.055C280.789 67.055 277.971 68.1946 275.858 70.4736C273.786 72.7527 272.75 75.8399 272.75 79.735C272.75 83.5888 273.786 86.6759 275.858 88.9964C277.971 91.2755 280.789 92.4151 284.311 92.4151ZM342.188 58.0422V66.5578H324.411V75.757H337.712V84.0239H324.411V101.676H313.782V58.0422H342.188ZM359.646 58.0422V101.676H349.017V58.0422H359.646ZM399.981 58.0422V66.5578H388.42V101.676H377.791V66.5578H366.23V58.0422H399.981ZM447.39 79.2999C449.918 79.8386 451.949 81.1025 453.482 83.0915C455.015 85.0391 455.782 87.2768 455.782 89.8045C455.782 93.451 454.497 96.3517 451.928 98.5064C449.4 100.62 445.857 101.676 441.299 101.676H420.974V58.0422H440.615C445.049 58.0422 448.509 59.0575 450.995 61.0879C453.523 63.1184 454.787 65.874 454.787 69.3548C454.787 71.924 454.103 74.058 452.736 75.757C451.41 77.4559 449.628 78.6369 447.39 79.2999ZM431.602 75.6948H438.564C440.304 75.6948 441.63 75.3219 442.542 74.576C443.495 73.7887 443.972 72.6491 443.972 71.1574C443.972 69.6656 443.495 68.5261 442.542 67.7387C441.63 66.9514 440.304 66.5578 438.564 66.5578H431.602V75.6948ZM439.434 93.0988C441.216 93.0988 442.584 92.7051 443.537 91.9178C444.531 91.089 445.028 89.9081 445.028 88.3749C445.028 86.8417 444.51 85.6399 443.474 84.7698C442.48 83.8996 441.092 83.4645 439.31 83.4645H431.602V93.0988H439.434ZM473.632 58.0422V84.1482C473.632 86.7588 474.274 88.7685 475.559 90.1774C476.843 91.5863 478.729 92.2907 481.215 92.2907C483.701 92.2907 485.607 91.5863 486.933 90.1774C488.259 88.7685 488.922 86.7588 488.922 84.1482V58.0422H499.551V84.086C499.551 87.9812 498.722 91.2755 497.065 93.969C495.407 96.6625 493.17 98.6929 490.352 100.06C487.576 101.428 484.468 102.112 481.028 102.112C477.589 102.112 474.502 101.449 471.767 100.123C469.074 98.7551 466.94 96.7246 465.365 94.0311C463.79 91.2962 463.003 87.9812 463.003 84.086V58.0422H473.632ZM524.605 58.0422C529.205 58.0422 533.224 58.9539 536.664 60.7772C540.103 62.6004 542.755 65.1696 544.62 68.4846C546.526 71.7582 547.479 75.5498 547.479 79.8593C547.479 84.1275 546.526 87.919 544.62 91.2341C542.755 94.5491 540.082 97.1183 536.602 98.9415C533.162 100.765 529.163 101.676 524.605 101.676H508.258V58.0422H524.605ZM523.922 92.4772C527.941 92.4772 531.07 91.3791 533.307 89.1829C535.545 86.9867 536.664 83.8788 536.664 79.8593C536.664 75.8399 535.545 72.7113 533.307 70.4736C531.07 68.236 527.941 67.1172 523.922 67.1172H518.887V92.4772H523.922ZM571.009 58.0422C575.609 58.0422 579.629 58.9539 583.068 60.7772C586.507 62.6004 589.159 65.1696 591.024 68.4846C592.93 71.7582 593.883 75.5498 593.883 79.8593C593.883 84.1275 592.93 87.919 591.024 91.2341C589.159 94.5491 586.486 97.1183 583.006 98.9415C579.566 100.765 575.568 101.676 571.009 101.676H554.662V58.0422H571.009ZM570.326 92.4772C574.345 92.4772 577.474 91.3791 579.711 89.1829C581.949 86.9867 583.068 83.8788 583.068 79.8593C583.068 75.8399 581.949 72.7113 579.711 70.4736C577.474 68.236 574.345 67.1172 570.326 67.1172H565.291V92.4772H570.326ZM638.485 58.0422L623.381 87.256V101.676H612.752V87.256L597.648 58.0422H609.706L618.159 76.3164L626.551 58.0422H638.485ZM685.588 93.969H669.303L666.692 101.676H655.566L671.354 58.0422H683.661L699.449 101.676H688.199L685.588 93.969ZM682.853 85.7643L677.445 69.7899L672.1 85.7643H682.853ZM716.126 58.0422V101.676H705.497V58.0422H716.126Z" fill="black"/>
<path d="M76 88.6758V160L142 121.324V50L76 88.6758Z" fill="black"/>
<path d="M66 88.6758V160L0 121.324V50L66 88.6758Z" fill="#D9D9D9"/>
<path d="M66 88.6758V160L0 121.324V50L66 88.6758Z" fill="black"/>
<path d="M71 80L0 40L71 0L142 40L71 80Z" fill="black"/>
<path d="M142 30L124.721 20.0312L41 68.3682V97.5L21 84.5V57L104.732 8.49902L90 0H142V30Z" fill="#24E698"/>
<circle cx="94" cy="114" r="6" fill="#24E698"/>
<circle opacity="0.6" cx="109" cy="105" r="6" fill="#24E698"/>
<circle opacity="0.3" cx="124" cy="96" r="6" fill="#24E698"/>
</svg>
